<svg width="74" height="26" viewBox="0 0 74 26" fill="none" xmlns="http://www.w3.org/2000/svg">
<path d="M7.14 10.8C7.188 10.872 7.212 10.936 7.212 10.992C7.212 11.056 7.196 11.108 7.164 11.148C7.132 11.188 7.088 11.212 7.032 11.22C6.984 11.236 6.932 11.228 6.876 11.196C6.828 11.172 6.78 11.124 6.732 11.052L6.012 9.888C5.86 9.632 5.656 9.436 5.4 9.3C5.144 9.164 4.844 9.096 4.5 9.096L4.98 8.856C5.364 8.856 5.66 8.92 5.868 9.048C6.084 9.184 6.304 9.44 6.528 9.816L7.14 10.8ZM4.5 9.096C3.74 9.096 3.084 8.92 2.532 8.568C1.98 8.216 1.552 7.716 1.248 7.068C0.952 6.42 0.804 5.652 0.804 4.764C0.804 4.092 0.888 3.492 1.056 2.964C1.224 2.428 1.468 1.976 1.788 1.608C2.108 1.232 2.496 0.944 2.952 0.744C3.408 0.543999 3.924 0.443999 4.5 0.443999C5.268 0.443999 5.928 0.619999 6.48 0.972C7.04 1.316 7.468 1.812 7.764 2.46C8.06 3.1 8.208 3.864 8.208 4.752C8.208 5.424 8.12 6.028 7.944 6.564C7.776 7.1 7.532 7.556 7.212 7.932C6.892 8.308 6.504 8.596 6.048 8.796C5.592 8.996 5.076 9.096 4.5 9.096ZM4.5 8.604C5.172 8.604 5.744 8.456 6.216 8.16C6.688 7.856 7.048 7.42 7.296 6.852C7.544 6.276 7.668 5.58 7.668 4.764C7.668 3.548 7.392 2.608 6.84 1.944C6.296 1.272 5.516 0.935999 4.5 0.935999C3.836 0.935999 3.268 1.088 2.796 1.392C2.324 1.688 1.964 2.124 1.716 2.7C1.468 3.268 1.344 3.956 1.344 4.764C1.344 5.972 1.62 6.916 2.172 7.596C2.724 8.268 3.5 8.604 4.5 8.604ZM12.0597 9.096C11.6037 9.096 11.2237 9.012 10.9197 8.844C10.6157 8.676 10.3877 8.428 10.2357 8.1C10.0837 7.772 10.0077 7.364 10.0077 6.876V3.384C10.0077 3.296 10.0277 3.232 10.0677 3.192C10.1157 3.144 10.1797 3.12 10.2597 3.12C10.3397 3.12 10.3997 3.144 10.4397 3.192C10.4877 3.232 10.5117 3.296 10.5117 3.384V6.828C10.5117 7.436 10.6357 7.888 10.8837 8.184C11.1317 8.48 11.5237 8.628 12.0597 8.628C12.6437 8.628 13.1157 8.436 13.4757 8.052C13.8437 7.66 14.0277 7.148 14.0277 6.516V3.384C14.0277 3.296 14.0477 3.232 14.0877 3.192C14.1357 3.144 14.1997 3.12 14.2797 3.12C14.3597 3.12 14.4197 3.144 14.4597 3.192C14.5077 3.232 14.5317 3.296 14.5317 3.384V8.808C14.5317 8.984 14.4517 9.072 14.2917 9.072C14.2117 9.072 14.1477 9.048 14.0997 9C14.0597 8.952 14.0397 8.888 14.0397 8.808V7.548H14.1837C14.0317 8.052 13.7637 8.436 13.3797 8.7C12.9957 8.964 12.5557 9.096 12.0597 9.096ZM18.3228 9.096C17.9468 9.096 17.6068 9.02 17.3028 8.868C16.9988 8.716 16.7588 8.512 16.5828 8.256C16.4068 7.992 16.3188 7.7 16.3188 7.38C16.3188 6.948 16.4228 6.612 16.6308 6.372C16.8468 6.124 17.2108 5.952 17.7228 5.856C18.2428 5.752 18.9548 5.7 19.8588 5.7H20.3508V6.144H19.8828C19.0908 6.144 18.4748 6.18 18.0348 6.252C17.6028 6.316 17.2988 6.436 17.1228 6.612C16.9548 6.78 16.8708 7.02 16.8708 7.332C16.8708 7.716 17.0028 8.032 17.2668 8.28C17.5388 8.52 17.9028 8.64 18.3588 8.64C18.7268 8.64 19.0468 8.552 19.3188 8.376C19.5988 8.192 19.8188 7.948 19.9788 7.644C20.1388 7.332 20.2188 6.98 20.2188 6.588V5.22C20.2188 4.644 20.1068 4.224 19.8828 3.96C19.6588 3.696 19.2988 3.564 18.8028 3.564C18.4828 3.564 18.1748 3.608 17.8788 3.696C17.5908 3.784 17.2868 3.92 16.9668 4.104C16.8948 4.144 16.8308 4.16 16.7748 4.152C16.7268 4.144 16.6868 4.124 16.6548 4.092C16.6228 4.052 16.5988 4.008 16.5828 3.96C16.5748 3.904 16.5788 3.852 16.5948 3.804C16.6188 3.756 16.6588 3.716 16.7148 3.684C17.0428 3.484 17.3828 3.336 17.7348 3.24C18.0868 3.144 18.4348 3.096 18.7788 3.096C19.2188 3.096 19.5828 3.172 19.8708 3.324C20.1588 3.476 20.3708 3.708 20.5068 4.02C20.6508 4.332 20.7228 4.732 20.7228 5.22V8.808C20.7228 8.888 20.7028 8.952 20.6628 9C20.6228 9.048 20.5628 9.072 20.4828 9.072C20.4028 9.072 20.3388 9.048 20.2908 9C20.2508 8.952 20.2308 8.888 20.2308 8.808V7.548H20.3628C20.2828 7.868 20.1468 8.144 19.9548 8.376C19.7628 8.608 19.5268 8.788 19.2468 8.916C18.9748 9.036 18.6668 9.096 18.3228 9.096ZM24.3188 9.096C23.8148 9.096 23.4228 8.936 23.1428 8.616C22.8708 8.288 22.7348 7.832 22.7348 7.248V0.732C22.7348 0.644 22.7548 0.579999 22.7948 0.539999C22.8428 0.492 22.9068 0.468 22.9868 0.468C23.0668 0.468 23.1268 0.492 23.1668 0.539999C23.2148 0.579999 23.2388 0.644 23.2388 0.732V7.164C23.2388 7.652 23.3348 8.02 23.5268 8.268C23.7188 8.508 23.9988 8.628 24.3668 8.628C24.4468 8.628 24.5148 8.624 24.5708 8.616C24.6268 8.608 24.6828 8.604 24.7388 8.604C24.8028 8.604 24.8508 8.616 24.8828 8.64C24.9228 8.664 24.9428 8.712 24.9428 8.784C24.9428 8.872 24.9188 8.936 24.8708 8.976C24.8228 9.016 24.7428 9.048 24.6308 9.072C24.5748 9.08 24.5188 9.084 24.4628 9.084C24.4148 9.092 24.3668 9.096 24.3188 9.096ZM26.2915 9.036C26.2115 9.036 26.1475 9.012 26.0995 8.964C26.0595 8.916 26.0395 8.852 26.0395 8.772V3.42C26.0395 3.332 26.0595 3.268 26.0995 3.228C26.1475 3.18 26.2115 3.156 26.2915 3.156C26.3715 3.156 26.4315 3.18 26.4715 3.228C26.5195 3.268 26.5435 3.332 26.5435 3.42V8.772C26.5435 8.852 26.5235 8.916 26.4835 8.964C26.4435 9.012 26.3795 9.036 26.2915 9.036ZM26.2915 1.608C26.1635 1.608 26.0595 1.572 25.9795 1.5C25.9075 1.42 25.8715 1.316 25.8715 1.188C25.8715 1.052 25.9075 0.951999 25.9795 0.887999C26.0595 0.815999 26.1635 0.779999 26.2915 0.779999C26.4275 0.779999 26.5315 0.815999 26.6035 0.887999C26.6755 0.951999 26.7115 1.052 26.7115 1.188C26.7115 1.316 26.6755 1.42 26.6035 1.5C26.5315 1.572 26.4275 1.608 26.2915 1.608ZM30.6225 9.096C30.2225 9.096 29.8865 9.02 29.6145 8.868C29.3425 8.708 29.1385 8.484 29.0025 8.196C28.8665 7.9 28.7985 7.544 28.7985 7.128V3.624H27.8265C27.7465 3.624 27.6825 3.604 27.6345 3.564C27.5865 3.524 27.5625 3.472 27.5625 3.408C27.5625 3.344 27.5865 3.292 27.6345 3.252C27.6825 3.212 27.7465 3.192 27.8265 3.192H28.7985V1.572C28.7985 1.484 28.8185 1.42 28.8585 1.38C28.9065 1.332 28.9705 1.308 29.0505 1.308C29.1305 1.308 29.1905 1.332 29.2305 1.38C29.2785 1.42 29.3025 1.484 29.3025 1.572V3.192H31.0185C31.1065 3.192 31.1705 3.212 31.2105 3.252C31.2585 3.292 31.2825 3.344 31.2825 3.408C31.2825 3.472 31.2585 3.524 31.2105 3.564C31.1705 3.604 31.1065 3.624 31.0185 3.624H29.3025V7.02C29.3025 7.54 29.4065 7.94 29.6145 8.22C29.8225 8.492 30.1705 8.628 30.6585 8.628C30.8265 8.628 30.9625 8.612 31.0665 8.58C31.1785 8.54 31.2705 8.52 31.3425 8.52C31.3905 8.52 31.4305 8.54 31.4625 8.58C31.5025 8.62 31.5225 8.676 31.5225 8.748C31.5225 8.788 31.5105 8.832 31.4865 8.88C31.4705 8.92 31.4345 8.948 31.3785 8.964C31.2985 8.996 31.1825 9.024 31.0305 9.048C30.8865 9.08 30.7505 9.096 30.6225 9.096ZM33.6248 11.232C33.5528 11.232 33.4968 11.212 33.4568 11.172C33.4168 11.132 33.3968 11.08 33.3968 11.016C33.3968 10.952 33.4088 10.888 33.4328 10.824L34.2608 8.916V9.156L31.8608 3.54C31.8288 3.46 31.8168 3.392 31.8248 3.336C31.8328 3.272 31.8568 3.22 31.8968 3.18C31.9448 3.14 32.0088 3.12 32.0888 3.12C32.1608 3.12 32.2128 3.14 32.2448 3.18C32.2848 3.212 32.3208 3.26 32.3528 3.324L34.6328 8.832H34.3448L36.6368 3.324C36.6688 3.252 36.7008 3.2 36.7328 3.168C36.7728 3.136 36.8328 3.12 36.9128 3.12C36.9928 3.12 37.0488 3.14 37.0808 3.18C37.1208 3.22 37.1408 3.272 37.1408 3.336C37.1488 3.392 37.1368 3.456 37.1048 3.528L33.9128 11.016C33.8808 11.096 33.8448 11.152 33.8048 11.184C33.7648 11.216 33.7048 11.232 33.6248 11.232ZM18.4628 25.072C18.3828 25.072 18.3228 25.056 18.2828 25.024C18.2428 24.992 18.2228 24.948 18.2228 24.892C18.2228 24.828 18.2388 24.76 18.2708 24.688L21.7028 16.72C21.7428 16.632 21.7908 16.568 21.8468 16.528C21.9028 16.488 21.9588 16.468 22.0148 16.468C22.0788 16.468 22.1388 16.488 22.1948 16.528C22.2508 16.568 22.2948 16.632 22.3268 16.72L25.7588 24.688C25.7908 24.76 25.8068 24.828 25.8068 24.892C25.8068 24.948 25.7908 24.992 25.7588 25.024C25.7268 25.056 25.6708 25.072 25.5908 25.072C25.5108 25.072 25.4428 25.048 25.3868 25C25.3388 24.952 25.2988 24.892 25.2668 24.82L24.2948 22.552L24.6188 22.66H19.3868L19.7228 22.552L18.7508 24.82C18.7188 24.908 18.6748 24.972 18.6188 25.012C18.5628 25.052 18.5108 25.072 18.4628 25.072ZM22.0028 17.224L19.8548 22.264L19.5908 22.192H24.4148L24.1748 22.264L22.0268 17.224H22.0028ZM29.082 25.096C28.714 25.096 28.358 25.044 28.014 24.94C27.67 24.836 27.334 24.66 27.006 24.412C26.966 24.38 26.938 24.34 26.922 24.292C26.914 24.244 26.914 24.196 26.922 24.148C26.938 24.1 26.962 24.06 26.994 24.028C27.034 23.988 27.078 23.968 27.126 23.968C27.182 23.968 27.238 23.988 27.294 24.028C27.598 24.252 27.902 24.408 28.206 24.496C28.51 24.584 28.814 24.628 29.118 24.628C29.638 24.628 30.034 24.528 30.306 24.328C30.586 24.128 30.726 23.856 30.726 23.512C30.726 23.24 30.634 23.028 30.45 22.876C30.274 22.716 29.986 22.588 29.586 22.492L28.59 22.252C28.086 22.132 27.714 21.948 27.474 21.7C27.242 21.452 27.126 21.132 27.126 20.74C27.126 20.412 27.21 20.124 27.378 19.876C27.554 19.628 27.798 19.436 28.11 19.3C28.43 19.164 28.798 19.096 29.214 19.096C29.566 19.096 29.902 19.152 30.222 19.264C30.55 19.376 30.826 19.544 31.05 19.768C31.098 19.816 31.126 19.868 31.134 19.924C31.15 19.972 31.15 20.02 31.134 20.068C31.118 20.116 31.09 20.152 31.05 20.176C31.01 20.2 30.962 20.212 30.906 20.212C30.858 20.204 30.806 20.176 30.75 20.128C30.526 19.936 30.282 19.796 30.018 19.708C29.754 19.612 29.482 19.564 29.202 19.564C28.714 19.564 28.334 19.672 28.062 19.888C27.79 20.096 27.654 20.376 27.654 20.728C27.654 21 27.738 21.22 27.906 21.388C28.074 21.556 28.342 21.684 28.71 21.772L29.706 22.012C30.226 22.14 30.614 22.32 30.87 22.552C31.126 22.784 31.254 23.096 31.254 23.488C31.254 23.976 31.058 24.368 30.666 24.664C30.274 24.952 29.746 25.096 29.082 25.096ZM34.7773 25.096C34.4093 25.096 34.0533 25.044 33.7093 24.94C33.3653 24.836 33.0293 24.66 32.7013 24.412C32.6613 24.38 32.6333 24.34 32.6173 24.292C32.6093 24.244 32.6093 24.196 32.6173 24.148C32.6333 24.1 32.6573 24.06 32.6893 24.028C32.7293 23.988 32.7733 23.968 32.8213 23.968C32.8773 23.968 32.9333 23.988 32.9893 24.028C33.2933 24.252 33.5973 24.408 33.9013 24.496C34.2053 24.584 34.5093 24.628 34.8133 24.628C35.3333 24.628 35.7293 24.528 36.0013 24.328C36.2813 24.128 36.4213 23.856 36.4213 23.512C36.4213 23.24 36.3293 23.028 36.1453 22.876C35.9693 22.716 35.6813 22.588 35.2813 22.492L34.2853 22.252C33.7813 22.132 33.4093 21.948 33.1693 21.7C32.9373 21.452 32.8213 21.132 32.8213 20.74C32.8213 20.412 32.9053 20.124 33.0733 19.876C33.2493 19.628 33.4933 19.436 33.8053 19.3C34.1253 19.164 34.4933 19.096 34.9093 19.096C35.2613 19.096 35.5973 19.152 35.9173 19.264C36.2453 19.376 36.5213 19.544 36.7453 19.768C36.7933 19.816 36.8213 19.868 36.8293 19.924C36.8453 19.972 36.8453 20.02 36.8293 20.068C36.8133 20.116 36.7853 20.152 36.7453 20.176C36.7053 20.2 36.6573 20.212 36.6013 20.212C36.5533 20.204 36.5013 20.176 36.4453 20.128C36.2213 19.936 35.9773 19.796 35.7133 19.708C35.4493 19.612 35.1773 19.564 34.8973 19.564C34.4093 19.564 34.0293 19.672 33.7573 19.888C33.4853 20.096 33.3493 20.376 33.3493 20.728C33.3493 21 33.4333 21.22 33.6013 21.388C33.7693 21.556 34.0373 21.684 34.4053 21.772L35.4013 22.012C35.9213 22.14 36.3093 22.32 36.5653 22.552C36.8213 22.784 36.9493 23.096 36.9493 23.488C36.9493 23.976 36.7533 24.368 36.3613 24.664C35.9693 24.952 35.4413 25.096 34.7773 25.096ZM38.9126 25.036C38.8326 25.036 38.7686 25.012 38.7206 24.964C38.6806 24.916 38.6606 24.852 38.6606 24.772V19.42C38.6606 19.332 38.6806 19.268 38.7206 19.228C38.7686 19.18 38.8326 19.156 38.9126 19.156C38.9926 19.156 39.0526 19.18 39.0926 19.228C39.1406 19.268 39.1646 19.332 39.1646 19.42V24.772C39.1646 24.852 39.1446 24.916 39.1046 24.964C39.0646 25.012 39.0006 25.036 38.9126 25.036ZM38.9126 17.608C38.7846 17.608 38.6806 17.572 38.6006 17.5C38.5286 17.42 38.4926 17.316 38.4926 17.188C38.4926 17.052 38.5286 16.952 38.6006 16.888C38.6806 16.816 38.7846 16.78 38.9126 16.78C39.0486 16.78 39.1526 16.816 39.2246 16.888C39.2966 16.952 39.3326 17.052 39.3326 17.188C39.3326 17.316 39.2966 17.42 39.2246 17.5C39.1526 17.572 39.0486 17.608 38.9126 17.608ZM43.0156 25.096C42.6476 25.096 42.2916 25.044 41.9476 24.94C41.6036 24.836 41.2676 24.66 40.9396 24.412C40.8996 24.38 40.8716 24.34 40.8556 24.292C40.8476 24.244 40.8476 24.196 40.8556 24.148C40.8716 24.1 40.8956 24.06 40.9276 24.028C40.9676 23.988 41.0116 23.968 41.0596 23.968C41.1156 23.968 41.1716 23.988 41.2276 24.028C41.5316 24.252 41.8356 24.408 42.1396 24.496C42.4436 24.584 42.7476 24.628 43.0516 24.628C43.5716 24.628 43.9676 24.528 44.2396 24.328C44.5196 24.128 44.6596 23.856 44.6596 23.512C44.6596 23.24 44.5676 23.028 44.3836 22.876C44.2076 22.716 43.9196 22.588 43.5196 22.492L42.5236 22.252C42.0196 22.132 41.6476 21.948 41.4076 21.7C41.1756 21.452 41.0596 21.132 41.0596 20.74C41.0596 20.412 41.1436 20.124 41.3116 19.876C41.4876 19.628 41.7316 19.436 42.0436 19.3C42.3636 19.164 42.7316 19.096 43.1476 19.096C43.4996 19.096 43.8356 19.152 44.1556 19.264C44.4836 19.376 44.7596 19.544 44.9836 19.768C45.0316 19.816 45.0596 19.868 45.0676 19.924C45.0836 19.972 45.0836 20.02 45.0676 20.068C45.0516 20.116 45.0236 20.152 44.9836 20.176C44.9436 20.2 44.8956 20.212 44.8396 20.212C44.7916 20.204 44.7396 20.176 44.6836 20.128C44.4596 19.936 44.2156 19.796 43.9516 19.708C43.6876 19.612 43.4156 19.564 43.1356 19.564C42.6476 19.564 42.2676 19.672 41.9956 19.888C41.7236 20.096 41.5876 20.376 41.5876 20.728C41.5876 21 41.6716 21.22 41.8396 21.388C42.0076 21.556 42.2756 21.684 42.6436 21.772L43.6396 22.012C44.1596 22.14 44.5476 22.32 44.8036 22.552C45.0596 22.784 45.1876 23.096 45.1876 23.488C45.1876 23.976 44.9916 24.368 44.5996 24.664C44.2076 24.952 43.6796 25.096 43.0156 25.096ZM48.8803 25.096C48.4803 25.096 48.1443 25.02 47.8723 24.868C47.6003 24.708 47.3963 24.484 47.2603 24.196C47.1243 23.9 47.0563 23.544 47.0563 23.128V19.624H46.0843C46.0043 19.624 45.9403 19.604 45.8923 19.564C45.8443 19.524 45.8203 19.472 45.8203 19.408C45.8203 19.344 45.8443 19.292 45.8923 19.252C45.9403 19.212 46.0043 19.192 46.0843 19.192H47.0563V17.572C47.0563 17.484 47.0763 17.42 47.1163 17.38C47.1643 17.332 47.2283 17.308 47.3083 17.308C47.3883 17.308 47.4483 17.332 47.4883 17.38C47.5363 17.42 47.5603 17.484 47.5603 17.572V19.192H49.2763C49.3643 19.192 49.4283 19.212 49.4683 19.252C49.5163 19.292 49.5403 19.344 49.5403 19.408C49.5403 19.472 49.5163 19.524 49.4683 19.564C49.4283 19.604 49.3643 19.624 49.2763 19.624H47.5603V23.02C47.5603 23.54 47.6643 23.94 47.8723 24.22C48.0803 24.492 48.4283 24.628 48.9163 24.628C49.0843 24.628 49.2203 24.612 49.3243 24.58C49.4363 24.54 49.5283 24.52 49.6003 24.52C49.6483 24.52 49.6883 24.54 49.7203 24.58C49.7603 24.62 49.7803 24.676 49.7803 24.748C49.7803 24.788 49.7683 24.832 49.7443 24.88C49.7283 24.92 49.6923 24.948 49.6363 24.964C49.5563 24.996 49.4403 25.024 49.2883 25.048C49.1443 25.08 49.0083 25.096 48.8803 25.096ZM53.0375 25.096C52.4615 25.096 51.9655 24.976 51.5495 24.736C51.1335 24.496 50.8095 24.156 50.5775 23.716C50.3535 23.268 50.2415 22.736 50.2415 22.12C50.2415 21.512 50.3535 20.984 50.5775 20.536C50.8095 20.08 51.1255 19.728 51.5255 19.48C51.9335 19.224 52.4015 19.096 52.9295 19.096C53.3055 19.096 53.6375 19.16 53.9255 19.288C54.2215 19.416 54.4695 19.6 54.6695 19.84C54.8775 20.08 55.0335 20.372 55.1375 20.716C55.2495 21.06 55.3055 21.448 55.3055 21.88C55.3055 21.984 55.2815 22.064 55.2335 22.12C55.1935 22.168 55.1295 22.192 55.0415 22.192H50.5655V21.748H55.0415L54.8375 21.892C54.8375 21.404 54.7655 20.988 54.6215 20.644C54.4775 20.292 54.2615 20.024 53.9735 19.84C53.6935 19.648 53.3415 19.552 52.9175 19.552C52.4535 19.552 52.0575 19.664 51.7295 19.888C51.4095 20.104 51.1655 20.4 50.9975 20.776C50.8375 21.152 50.7575 21.58 50.7575 22.06V22.12C50.7575 22.92 50.9535 23.54 51.3455 23.98C51.7455 24.412 52.3015 24.628 53.0135 24.628C53.3335 24.628 53.6335 24.588 53.9135 24.508C54.1935 24.42 54.4695 24.268 54.7415 24.052C54.7975 24.004 54.8535 23.98 54.9095 23.98C54.9735 23.972 55.0255 23.984 55.0655 24.016C55.1135 24.04 55.1455 24.076 55.1615 24.124C55.1855 24.164 55.1895 24.212 55.1735 24.268C55.1575 24.324 55.1175 24.376 55.0535 24.424C54.8055 24.632 54.5015 24.796 54.1415 24.916C53.7815 25.036 53.4135 25.096 53.0375 25.096ZM57.1587 25.072C57.0787 25.072 57.0147 25.048 56.9667 25C56.9267 24.952 56.9067 24.888 56.9067 24.808V19.384C56.9067 19.296 56.9267 19.232 56.9667 19.192C57.0147 19.144 57.0787 19.12 57.1587 19.12C57.2387 19.12 57.2987 19.144 57.3387 19.192C57.3787 19.232 57.3987 19.296 57.3987 19.384V20.608H57.2667C57.4267 20.104 57.7027 19.728 58.0947 19.48C58.4867 19.224 58.9387 19.096 59.4507 19.096C59.9147 19.096 60.2987 19.176 60.6027 19.336C60.9147 19.496 61.1467 19.74 61.2987 20.068C61.4507 20.396 61.5267 20.808 61.5267 21.304V24.808C61.5267 24.888 61.5027 24.952 61.4547 25C61.4147 25.048 61.3547 25.072 61.2747 25.072C61.1947 25.072 61.1307 25.048 61.0827 25C61.0427 24.952 61.0227 24.888 61.0227 24.808V21.352C61.0227 20.736 60.8987 20.284 60.6507 19.996C60.4027 19.708 60.0027 19.564 59.4507 19.564C58.8347 19.564 58.3387 19.756 57.9627 20.14C57.5947 20.516 57.4107 21.024 57.4107 21.664V24.808C57.4107 24.984 57.3267 25.072 57.1587 25.072ZM65.8075 25.096C65.2555 25.096 64.7795 24.968 64.3795 24.712C63.9875 24.456 63.6835 24.1 63.4675 23.644C63.2595 23.188 63.1555 22.656 63.1555 22.048C63.1555 21.592 63.2155 21.184 63.3355 20.824C63.4555 20.456 63.6275 20.144 63.8515 19.888C64.0835 19.632 64.3635 19.436 64.6915 19.3C65.0195 19.164 65.3915 19.096 65.8075 19.096C66.1115 19.096 66.4195 19.152 66.7315 19.264C67.0515 19.368 67.3355 19.544 67.5835 19.792C67.6235 19.832 67.6435 19.876 67.6435 19.924C67.6515 19.972 67.6435 20.02 67.6195 20.068C67.6035 20.108 67.5755 20.14 67.5355 20.164C67.4955 20.188 67.4475 20.2 67.3915 20.2C67.3355 20.192 67.2795 20.16 67.2235 20.104C66.9915 19.896 66.7515 19.756 66.5035 19.684C66.2635 19.604 66.0275 19.564 65.7955 19.564C65.4515 19.564 65.1475 19.62 64.8835 19.732C64.6195 19.844 64.3955 20.008 64.2115 20.224C64.0355 20.432 63.8995 20.692 63.8035 21.004C63.7155 21.308 63.6715 21.66 63.6715 22.06C63.6715 22.86 63.8555 23.488 64.2235 23.944C64.5915 24.4 65.1155 24.628 65.7955 24.628C66.0275 24.628 66.2635 24.592 66.5035 24.52C66.7515 24.44 66.9915 24.296 67.2235 24.088C67.2795 24.032 67.3355 24.004 67.3915 24.004C67.4475 23.996 67.4955 24.004 67.5355 24.028C67.5755 24.052 67.6035 24.088 67.6195 24.136C67.6435 24.176 67.6515 24.22 67.6435 24.268C67.6435 24.316 67.6235 24.36 67.5835 24.4C67.3355 24.648 67.0515 24.828 66.7315 24.94C66.4195 25.044 66.1115 25.096 65.8075 25.096ZM71.2953 25.096C70.7193 25.096 70.2233 24.976 69.8073 24.736C69.3913 24.496 69.0673 24.156 68.8353 23.716C68.6113 23.268 68.4993 22.736 68.4993 22.12C68.4993 21.512 68.6113 20.984 68.8353 20.536C69.0673 20.08 69.3833 19.728 69.7833 19.48C70.1913 19.224 70.6593 19.096 71.1873 19.096C71.5633 19.096 71.8953 19.16 72.1833 19.288C72.4793 19.416 72.7273 19.6 72.9273 19.84C73.1353 20.08 73.2913 20.372 73.3953 20.716C73.5073 21.06 73.5633 21.448 73.5633 21.88C73.5633 21.984 73.5393 22.064 73.4913 22.12C73.4513 22.168 73.3873 22.192 73.2993 22.192H68.8233V21.748H73.2993L73.0953 21.892C73.0953 21.404 73.0233 20.988 72.8793 20.644C72.7353 20.292 72.5193 20.024 72.2313 19.84C71.9513 19.648 71.5993 19.552 71.1753 19.552C70.7113 19.552 70.3153 19.664 69.9873 19.888C69.6673 20.104 69.4233 20.4 69.2553 20.776C69.0953 21.152 69.0153 21.58 69.0153 22.06V22.12C69.0153 22.92 69.2113 23.54 69.6033 23.98C70.0033 24.412 70.5593 24.628 71.2713 24.628C71.5913 24.628 71.8913 24.588 72.1713 24.508C72.4513 24.42 72.7273 24.268 72.9993 24.052C73.0553 24.004 73.1113 23.98 73.1673 23.98C73.2313 23.972 73.2833 23.984 73.3233 24.016C73.3713 24.04 73.4033 24.076 73.4193 24.124C73.4433 24.164 73.4473 24.212 73.4313 24.268C73.4153 24.324 73.3753 24.376 73.3113 24.424C73.0633 24.632 72.7593 24.796 72.3993 24.916C72.0393 25.036 71.6713 25.096 71.2953 25.096Z" fill="#FF7200"/>
</svg>
