<svg width="421" height="429" viewBox="0 0 421 429" fill="none" xmlns="http://www.w3.org/2000/svg">
<path fill-rule="evenodd" clip-rule="evenodd" d="M31.5553 0.509052C13.5368 3.04501 3.13512 16.5558 0.929028 40.2906C0.506199 44.8348 0.196037 97.3564 0.077541 184.492C-0.0998787 314.475 -0.0493794 321.864 1.06176 327.729C5.56006 351.477 21.0739 363.154 43.5978 359.746C54.5739 358.086 66.3295 353.525 82.557 344.632C88.3736 341.445 98.3778 335.964 104.788 332.452C111.199 328.941 118.337 325.007 120.652 323.71C125.904 320.767 148.455 308.334 152.381 306.216C153.983 305.352 157.917 303.16 161.122 301.346C164.327 299.531 170.301 296.235 174.396 294.02C207.293 276.233 209.52 274.775 214.536 267.755C221.058 258.628 221.479 244.281 215.512 234.451C212.777 229.943 206.705 224.625 201.708 222.358C191.599 217.774 182.744 217.78 172.867 222.38C167.715 224.779 165.771 225.82 147.848 235.773C143.04 238.442 137.213 241.656 134.898 242.914C132.583 244.172 125.59 248.008 119.357 251.439C109.094 257.088 107.568 257.739 103.169 258.349C86.6227 260.643 71.1406 251.202 66.7983 236.171C65.6943 232.348 65.6134 228.583 65.6134 181.031C65.6134 132.187 65.6684 129.787 66.8968 125.178C70.9451 109.983 86.1747 100.364 103.077 102.326C108.36 102.939 107.555 102.566 126.48 113.173C132.493 116.543 146.73 124.486 152.381 127.623C154.339 128.71 158.564 131.083 161.77 132.895C164.975 134.706 169.054 136.988 170.835 137.965C185.55 146.037 203.668 142.414 213.948 129.345C219.366 122.456 221.63 111.905 219.457 103.674C216.818 93.6805 211.399 87.368 200.113 81.1443C196.119 78.9415 190.228 75.664 187.023 73.8615C183.818 72.0584 178.5 69.0817 175.206 67.2463C166.146 62.1999 157.208 57.2025 151.086 53.7616C148.059 52.0604 141.939 48.6555 137.488 46.1954C133.036 43.7353 126.917 40.3304 123.89 38.6292C116.939 34.7227 107.571 29.4879 99.4462 24.9711C95.9735 23.0405 90.6561 20.0713 87.629 18.372C84.6018 16.6733 80.5225 14.4425 78.5637 13.4151C76.605 12.3876 74.351 11.1576 73.5552 10.6827C67.2717 6.92912 51.2955 1.70741 42.5016 0.533914C37.212 -0.172797 36.4117 -0.174662 31.5553 0.509052ZM377.717 70.497C373.521 70.9738 364.795 73.3966 365.171 73.9802C365.376 74.2991 365.15 74.4881 364.669 74.4004C363.236 74.14 359.586 75.1488 359.586 75.8051C359.586 76.1402 359.295 76.2415 358.939 76.0301C358.583 75.8188 357.946 75.8505 357.524 76.1004C356.995 76.4143 357.146 76.7145 358.01 77.0681C358.911 77.4373 358.718 77.4945 357.32 77.2726C356.251 77.1036 354.94 77.2701 354.406 77.6437C353.591 78.2137 353.623 78.2646 354.602 77.9607C355.316 77.7388 355.608 77.8476 355.353 78.2423C355.125 78.5966 354.455 78.8439 353.863 78.7917C352.3 78.6531 349.873 79.4978 349.873 80.1797C349.873 80.5016 349.623 80.6172 349.318 80.4357C349.013 80.2549 347.192 81.0076 345.272 82.1084C343.351 83.2098 340.962 84.4609 339.962 84.8898C338.862 85.3616 338.327 85.9521 338.605 86.3847C338.875 86.803 338.782 86.931 338.382 86.6936C337.488 86.1634 332.24 89.0269 332.875 89.6994C333.143 89.9829 333.033 90.0344 332.631 89.8138C331.711 89.3097 327.879 91.1048 327.419 92.2553C327.229 92.7289 326.814 92.9614 326.495 92.7718C326.176 92.5828 325.915 92.7245 325.915 93.0863C325.915 93.448 325.697 93.7116 325.43 93.6712C324.2 93.4847 323.873 93.8129 324.531 94.5731C325.072 95.1983 325.018 95.4022 324.315 95.4022C323.802 95.4022 323.532 95.1691 323.716 94.8838C324.478 93.6992 320.648 95.2518 317.76 97.2973C316.658 98.078 315.42 98.717 315.009 98.717C314.597 98.717 314.26 99.0433 314.26 99.4423C314.26 99.8408 314.074 99.9893 313.847 99.7711C313.62 99.5536 312.672 99.8563 311.741 100.445C308.579 102.439 307.466 103.072 304.729 104.429C302.412 105.577 302.117 105.931 302.787 106.756C303.472 107.601 303.434 107.623 302.504 106.926C301.612 106.256 301.099 106.317 299.431 107.291C298.33 107.933 297.647 108.689 297.913 108.971C298.178 109.252 297.987 109.255 297.488 108.978C296.899 108.649 296.274 108.874 295.707 109.618C295.228 110.249 294.834 110.564 294.834 110.318C294.834 110.073 293.96 110.307 292.892 110.837C291.823 111.368 290.949 112.064 290.949 112.385C290.949 112.706 290.332 113.286 289.576 113.675C288.603 114.174 288.331 114.18 288.645 113.693C289.198 112.834 283.809 115.554 281.49 117.306C280.542 118.021 279.352 118.607 278.845 118.607C278.338 118.607 278.103 118.887 278.323 119.228C278.543 119.57 278.259 119.85 277.691 119.85C276.551 119.85 269.514 123.548 270.553 123.601C270.909 123.619 270.038 124.031 268.618 124.516C267.199 125.001 265.713 125.824 265.317 126.344C264.921 126.864 264.469 127.223 264.311 127.143C264.154 127.064 264.58 127.487 265.257 128.086C265.933 128.684 266.299 129.173 266.069 129.173C265.839 129.173 264.871 128.684 263.917 128.086C262.965 127.487 262.409 127.348 262.684 127.775C263.018 128.296 262.761 128.552 261.903 128.552C261.2 128.552 260.526 128.834 260.406 129.18C260.286 129.524 259.534 129.928 258.735 130.076C256.698 130.452 253.399 132.408 253.786 133.01C253.963 133.285 253.712 133.364 253.228 133.185C252.449 132.899 251.623 133.382 248.367 136.031C247.917 136.396 247.312 136.555 247.021 136.382C246.73 136.21 245.534 136.909 244.364 137.935C243.192 138.962 242.079 139.653 241.888 139.47C241.698 139.287 241.127 139.623 240.621 140.216C240.083 140.845 239.91 140.906 240.205 140.361C240.601 139.632 240.365 139.666 239.12 140.514C238.245 141.11 236.655 142.058 235.587 142.621C234.518 143.183 233.43 143.953 233.168 144.333C232.907 144.712 232.688 144.806 232.683 144.541C232.668 143.834 228.788 145.878 228.788 146.593C228.788 146.926 229.097 147.198 229.473 147.198C229.85 147.198 229.979 146.919 229.759 146.577C229.539 146.235 229.668 145.955 230.045 145.955C230.421 145.955 230.73 146.218 230.73 146.54C230.73 147.517 229.367 148.003 228.625 147.29C228.125 146.811 227.666 146.924 227.014 147.686C226.424 148.376 226.267 148.423 226.569 147.82C226.826 147.307 226.398 147.517 225.62 148.286C224.842 149.056 223.896 149.685 223.518 149.685C222.027 149.685 218.462 151.722 218.863 152.345C219.124 152.75 218.892 152.858 218.264 152.627C217.651 152.401 217.082 152.644 216.847 153.231C216.631 153.771 216.264 154.031 216.032 153.808C215.457 153.256 212.651 155.856 212.864 156.743C212.958 157.134 212.914 157.247 212.765 156.993C212.325 156.24 209.882 157.792 210.211 158.616C210.377 159.031 210.109 159.902 209.614 160.551C209.119 161.201 208.715 161.455 208.715 161.116C208.715 160.777 208.933 160.234 209.2 159.908C209.468 159.583 209.088 159.876 208.358 160.561C204.547 164.131 202.115 170.915 201.838 178.743C201.714 182.246 201.826 185.114 202.088 185.115C202.35 185.116 202.596 185.984 202.636 187.045C202.675 188.106 203.112 189.22 203.607 189.52C204.101 189.821 204.277 190.071 203.998 190.077C203.718 190.082 203.849 190.716 204.29 191.484C204.73 192.254 205.162 193.295 205.248 193.798C205.334 194.302 205.853 195.029 206.402 195.413C206.951 195.799 207.21 196.296 206.978 196.518C206.746 196.741 206.896 196.923 207.312 196.923C207.727 196.923 208.067 197.223 208.067 197.589C208.067 198.553 213.835 204.257 215.794 205.23C216.708 205.684 218.883 206.798 220.628 207.705C223.233 209.059 223.978 209.215 224.799 208.577C225.485 208.045 225.655 208.03 225.341 208.533C224.652 209.636 227.086 210.141 233.636 210.255C239.119 210.351 244.862 209.452 244.008 208.633C243.797 208.431 244.09 208.094 244.658 207.884C245.256 207.664 245.524 207.762 245.295 208.118C244.62 209.166 245.753 208.793 246.733 207.645C247.34 206.933 247.516 206.88 247.242 207.49C247.011 208.002 247.281 207.879 247.842 207.215C248.402 206.552 248.861 206.21 248.861 206.457C248.861 206.878 250.12 206.261 260.357 200.827C262.703 199.582 264.227 198.399 263.98 198.015C263.717 197.606 263.863 197.537 264.363 197.832C264.836 198.113 265.943 197.765 267.027 196.996C268.047 196.272 269.184 195.68 269.555 195.68C269.926 195.68 270.229 195.4 270.229 195.058C270.229 194.717 270.447 194.481 270.714 194.536C271.56 194.707 273.466 193.707 273.466 193.091C273.466 192.765 273.13 192.698 272.718 192.942C272.266 193.211 272.147 193.114 272.416 192.695C272.66 192.315 273.299 192.166 273.835 192.364C274.371 192.562 275.333 192.269 275.971 191.714C276.61 191.159 277.328 190.892 277.566 191.12C277.804 191.349 277.999 191.194 277.999 190.775C277.999 190.356 278.221 190.144 278.493 190.305C278.764 190.466 279.711 190.184 280.598 189.678C281.483 189.171 281.683 188.913 281.041 189.103C280.33 189.315 280.036 189.198 280.289 188.806C280.517 188.452 281.334 188.245 282.104 188.347C282.992 188.464 283.438 188.231 283.325 187.709C283.227 187.256 283.386 187.028 283.678 187.201C283.971 187.375 285.8 186.661 287.742 185.614C289.684 184.568 292.074 183.308 293.054 182.814C294.033 182.319 294.834 181.639 294.834 181.302C294.834 180.965 295.126 180.862 295.482 181.073C295.838 181.285 296.129 181.145 296.129 180.763C296.129 180.38 296.353 180.2 296.627 180.362C297.23 180.72 302.092 177.984 301.95 177.366C301.894 177.126 302.066 176.743 302.331 176.515C302.596 176.287 302.603 176.451 302.346 176.878C301.8 177.788 302.714 177.923 303.61 177.063C303.949 176.737 305.537 175.793 307.139 174.963C308.741 174.134 309.971 173.121 309.873 172.712C309.775 172.303 309.997 172.148 310.367 172.367C310.737 172.586 311.924 172.342 313.006 171.823C314.088 171.305 315.396 171.036 315.912 171.227C316.428 171.417 316.85 171.332 316.85 171.04C316.849 169.974 328.453 170.7 334.333 172.135C334.867 172.265 335.235 172.032 335.15 171.617C335.054 171.146 335.407 171.013 336.088 171.265C336.775 171.518 336.893 171.76 336.404 171.916C334.986 172.37 335.598 173.103 338.38 174.28C339.893 174.921 341.31 175.686 341.528 175.982C341.746 176.276 342.11 176.494 342.338 176.465C343.709 176.289 344.546 176.581 345.988 177.742L347.607 179.045L345.826 178.025C343.618 176.76 343.574 177.102 345.665 179.268C346.662 180.301 347.29 180.612 347.3 180.076C347.309 179.599 348.064 180.607 348.977 182.316C351.003 186.109 351.791 187.066 352.53 186.628C352.841 186.444 352.923 186.726 352.711 187.257C352.498 187.787 352.615 188.221 352.97 188.221C353.325 188.221 353.574 188.711 353.525 189.309C353.475 189.907 353.726 190.35 354.082 190.293C354.438 190.236 354.837 190.936 354.967 191.847C355.097 192.759 355.307 218.759 355.433 249.626C355.605 291.53 355.476 305.635 354.924 305.308C354.436 305.019 354.326 305.221 354.6 305.904C354.827 306.474 354.7 306.939 354.317 306.939C353.933 306.939 353.788 307.358 353.993 307.871C354.198 308.384 354.144 308.803 353.874 308.803C353.603 308.803 352.539 310.412 351.509 312.377C350.479 314.343 349.102 316.32 348.45 316.771C347.796 317.222 347.43 317.851 347.634 318.169C348.287 319.183 349.2 318.791 348.821 317.661C348.523 316.774 348.579 316.739 349.122 317.475C350.077 318.769 349.398 319.435 347.572 318.995C346.325 318.695 345.87 318.921 345.387 320.08C345.05 320.887 344.757 321.355 344.734 321.121C344.712 320.888 343.207 321.657 341.391 322.831C339.574 324.004 337.809 324.964 337.467 324.964C337.126 324.964 337.027 325.243 337.246 325.585C337.477 325.943 337.014 326.14 336.151 326.051C335.33 325.966 334.709 326.186 334.773 326.54C334.883 327.156 334.44 327.262 330.76 327.5C329.863 327.558 328.977 327.841 328.792 328.129C328.607 328.417 327.547 328.478 326.437 328.265C325.189 328.026 324.568 328.11 324.811 328.486C325.273 329.204 317.898 328.389 313.936 327.284C312.512 326.886 310.985 326.59 310.544 326.625C310.102 326.66 309.858 326.507 310 326.287C310.142 326.066 309.119 325.353 307.727 324.703C306.334 324.053 305.195 323.256 305.195 322.933C305.195 322.609 304.743 322.511 304.19 322.715C303.637 322.918 303.325 322.868 303.496 322.603C303.667 322.337 302.37 321.345 300.615 320.399C298.86 319.451 297.42 318.902 297.415 319.178C297.409 319.455 297.191 319.373 296.929 318.996C296.317 318.116 290.675 314.711 291.213 315.547C291.436 315.893 291.315 316.356 290.944 316.576C290.573 316.796 290.312 316.746 290.363 316.463C290.585 315.233 290.254 314.353 289.694 314.685C289.36 314.883 289.199 315.606 289.336 316.292C289.474 316.977 289.331 317.387 289.018 317.201C288.705 317.015 288.58 316.169 288.741 315.32C288.915 314.392 288.728 313.776 288.271 313.776C287.853 313.776 286.608 313.116 285.506 312.31C284.404 311.504 281.9 310.024 279.942 309.02C277.983 308.017 275.239 306.451 273.844 305.541C272.449 304.631 271.065 304.03 270.768 304.206C270.472 304.382 270.229 304.213 270.229 303.831C270.229 303.449 269.962 303.294 269.636 303.487C269.311 303.681 268.947 303.605 268.827 303.319C268.398 302.294 258.608 297.02 257.733 297.343C257.241 297.523 256.428 297.17 255.925 296.556C255.09 295.535 255.11 295.514 256.161 296.306C256.793 296.781 257.473 297.014 257.673 296.822C258.263 296.255 255.377 295.031 254.575 295.507C254.137 295.767 254.019 295.666 254.282 295.257C254.963 294.2 252.481 293.159 251.455 294.071C250.814 294.64 250.717 294.641 251.047 294.076C251.655 293.04 246.448 290.229 242.142 289.268C236.055 287.91 228.149 288.135 223.284 289.807C222.928 289.929 221.984 290.229 221.187 290.474C220.389 290.719 219.878 291.138 220.05 291.405C220.222 291.673 219.912 292.057 219.361 292.26C218.784 292.473 218.529 292.367 218.759 292.01C218.986 291.656 218.453 291.699 217.518 292.108C216.616 292.502 216.012 293.034 216.177 293.289C216.341 293.544 215.717 293.936 214.789 294.16C213.122 294.561 213.116 294.583 214.308 295.925C215.264 297.001 215.285 297.114 214.412 296.465C212.953 295.383 211.338 296.002 209.362 298.4C208.472 299.481 208.18 300.142 208.715 299.869C209.249 299.596 208.958 299.98 208.067 300.723C207.177 301.466 206.885 301.856 207.42 301.59C208.223 301.19 208.252 301.271 207.587 302.06C207.145 302.584 206.999 303.258 207.264 303.557C207.527 303.856 207.26 303.748 206.67 303.316C205.734 302.631 205.496 302.831 204.804 304.89C204.369 306.188 203.7 307.809 203.318 308.493C202.938 309.176 202.567 310.015 202.495 310.357C202.423 310.699 202.16 311.469 201.909 312.067C201.615 312.768 201.751 313.154 202.294 313.154C202.816 313.154 202.691 313.466 201.963 313.977C200.941 314.694 200.84 315.429 201.175 319.726C201.666 326.034 201.699 326.207 202.376 326.207C202.688 326.207 202.871 326.557 202.781 326.984C202.465 328.492 203.559 331.238 204.301 330.798C204.748 330.533 204.85 330.646 204.564 331.089C203.778 332.309 204.797 334.167 206.64 334.873C207.975 335.384 208.044 335.483 206.933 335.284L205.474 335.024L206.852 336.88C207.609 337.902 208.627 338.884 209.116 339.063C209.603 339.243 209.868 339.598 209.704 339.853C209.429 340.281 210.42 341.248 213.554 343.611C214.527 344.344 214.674 344.356 214.243 343.67C213.871 343.077 213.935 342.939 214.442 343.241C214.853 343.484 215.19 344.026 215.19 344.444C215.19 344.861 215.991 345.534 216.971 345.938C218.692 346.649 219.365 347.027 223.057 349.36C224.98 350.575 225.827 350.759 225.231 349.833C225.008 349.487 225.256 349.374 225.799 349.574C226.363 349.781 226.6 350.338 226.371 350.912C226.11 351.562 226.234 351.743 226.735 351.445C227.152 351.198 227.493 351.322 227.493 351.721C227.493 352.12 227.943 352.279 228.498 352.075C229.154 351.833 229.342 351.955 229.039 352.425C228.731 352.904 228.93 353.014 229.632 352.756C230.214 352.542 230.889 352.677 231.133 353.057C231.424 353.51 231.264 353.576 230.669 353.25C229.979 352.872 229.934 352.935 230.484 353.508C230.882 353.923 231.654 354.326 232.199 354.403C232.744 354.48 233.656 354.914 234.226 355.368C234.797 355.822 235.263 356.02 235.263 355.807C235.263 355.594 235.85 355.983 236.567 356.672C237.777 357.834 237.983 357.854 239.421 356.949C240.598 356.209 241.087 356.155 241.454 356.725C241.725 357.146 241.667 357.316 241.322 357.111C240.412 356.572 238.908 357.653 239.434 358.469C239.682 358.854 240.156 359.009 240.488 358.812C240.819 358.616 241.091 358.751 241.091 359.113C241.091 359.475 241.528 359.771 242.062 359.771C242.596 359.771 243.033 359.987 243.033 360.252C243.033 360.516 244.126 361.273 245.461 361.935C246.797 362.596 248.618 363.599 249.508 364.162C250.399 364.727 251.532 365.052 252.026 364.885C252.576 364.7 252.75 364.856 252.474 365.284C252.225 365.671 252.35 365.987 252.751 365.987C253.152 365.987 254.466 366.709 255.671 367.591C257.73 369.099 258.925 369.555 261.11 369.668C261.614 369.695 261.833 369.902 261.597 370.129C261.36 370.356 261.966 371.018 262.946 371.599C264.286 372.396 265.044 372.499 266.02 372.017C267.145 371.461 267.206 371.504 266.488 372.34C265.781 373.163 266.045 373.495 268.312 374.628C269.769 375.358 271.214 375.805 271.522 375.622C271.83 375.439 272.292 375.617 272.55 376.017C272.871 376.515 272.731 376.579 272.11 376.219C271.345 375.777 271.337 375.855 272.057 376.708C272.539 377.279 273.364 377.556 273.944 377.343C274.549 377.12 274.808 377.221 274.572 377.588C274.24 378.103 278.308 380.549 278.812 380.138C278.899 380.067 280.317 380.898 281.964 381.986C283.61 383.073 285.14 383.787 285.363 383.573C285.587 383.359 285.769 383.526 285.769 383.945C285.769 384.364 286.03 384.552 286.349 384.363C286.668 384.173 287.102 384.454 287.315 384.987C287.529 385.52 287.952 385.808 288.256 385.627C288.561 385.446 289.441 385.862 290.212 386.552C290.983 387.241 291.881 387.646 292.208 387.452C292.535 387.258 293.013 387.427 293.271 387.827C293.587 388.319 293.444 388.393 292.83 388.057C292.231 387.729 292.142 387.767 292.568 388.169C292.924 388.504 294.601 389.268 296.295 389.867C298.128 390.514 299.202 391.224 298.947 391.62C298.694 392.013 298.825 392.103 299.267 391.84C299.678 391.597 300.015 391.7 300.015 392.07C300.015 392.476 300.601 392.374 301.497 391.81C302.866 390.948 302.986 390.971 303.075 392.106C303.129 392.782 302.881 393.335 302.526 393.335C302.171 393.335 302.061 393.056 302.281 392.714C302.501 392.372 302.372 392.092 301.995 392.092C301.618 392.092 301.31 392.364 301.31 392.697C301.31 393.412 305.19 395.457 305.204 394.75C305.21 394.484 305.428 394.581 305.69 394.964C306.674 396.403 315.077 400.864 316.098 400.489C316.667 400.279 316.941 400.292 316.704 400.519C316.026 401.171 319.949 404.025 321.659 404.124C322.507 404.173 323.035 404.47 322.833 404.784C322.63 405.101 322.961 405.173 323.576 404.947C324.188 404.722 324.527 404.787 324.331 405.091C324.01 405.589 327.215 407.793 328.829 408.184C329.185 408.271 329.95 408.752 330.529 409.255C331.108 409.758 331.836 410.124 332.148 410.069C333.491 409.834 334.321 410.173 334.171 410.894C334.079 411.337 334.621 411.651 335.434 411.625C336.217 411.6 336.719 411.795 336.549 412.06C336.217 412.575 338.864 414.199 339.675 413.978C339.942 413.906 340.161 414.143 340.161 414.505C340.161 414.867 340.427 415.005 340.753 414.812C341.079 414.619 341.443 414.672 341.562 414.931C342 415.879 347.642 419.05 348.754 418.974C349.469 418.924 349.735 419.173 349.46 419.634C349.217 420.04 349.26 420.162 349.556 419.904C349.852 419.647 350.757 419.853 351.569 420.364C352.379 420.874 353.466 421.136 353.983 420.945C354.5 420.755 355.113 420.894 355.346 421.256C355.611 421.669 355.335 421.769 354.602 421.525C353.61 421.196 353.628 421.284 354.73 422.111C355.442 422.645 356.122 422.823 356.24 422.505C356.601 421.54 358.939 421.86 358.939 422.875C358.939 423.907 361.643 425.149 363.945 425.174C364.74 425.183 365.249 425.41 365.075 425.679C364.902 425.949 365.482 426.093 366.364 426C367.246 425.907 367.832 426.042 367.667 426.299C367.255 426.938 370.477 427.663 371.371 427.133C371.791 426.884 371.908 426.989 371.653 427.385C371.025 428.359 375.983 428.949 385.184 428.993C392.848 429.03 393.056 428.994 397.968 426.755C403.972 424.018 407.265 421.571 410.177 417.685C411.375 416.087 412.368 414.639 412.384 414.468C412.4 414.297 412.923 413.24 413.546 412.119C414.169 410.998 414.516 409.829 414.318 409.521C414.119 409.212 414.297 408.758 414.714 408.511C415.229 408.205 415.303 408.341 414.945 408.933C414.633 409.45 414.658 409.595 415.007 409.289C415.331 409.003 415.621 408.584 415.651 408.356C415.681 408.128 416.087 407.103 416.554 406.077C417.444 404.123 417.771 402.564 419.428 392.403C420.627 385.047 420.642 383.399 420.947 225.825C421.066 164.291 420.978 111.913 420.752 109.43C420.519 106.871 419.946 104.535 419.431 104.041C418.798 103.432 418.747 103.096 419.263 102.931C419.757 102.773 419.594 102.093 418.771 100.885C418.094 99.8899 417.915 99.2981 418.374 99.5698C419.014 99.9483 419.109 99.6518 418.777 98.303C418.539 97.334 418.309 96.273 418.265 95.9442C418.113 94.7887 416.888 93.9043 415.923 94.2536C415.186 94.5209 415.225 94.34 416.081 93.5114C416.95 92.6699 417.057 92.1366 416.544 91.2154C416.176 90.5553 415.722 90.0152 415.536 90.0152C415.349 90.0152 415.404 90.3384 415.658 90.7331C415.938 91.1675 415.837 91.2819 415.401 91.0233C415.005 90.789 414.827 90.2333 415.005 89.7883C415.527 88.4818 412.067 82.536 408.883 79.2685C405.832 76.1371 403.047 74.2021 403.911 75.8126C404.159 76.2744 403.732 75.8822 402.964 74.9424C402.195 74.0026 401.025 73.2331 400.363 73.2331C399.701 73.2331 398.131 72.6514 396.875 71.9397C395.005 70.8805 393.27 70.6095 387.288 70.443C383.27 70.3311 378.963 70.3553 377.717 70.497ZM373.656 72.3654C373.441 72.5718 372.882 72.5942 372.415 72.4145C371.899 72.2163 372.052 72.069 372.807 72.0391C373.489 72.0124 373.871 72.1591 373.656 72.3654ZM397.461 73.2263C397.688 73.5781 397.428 73.6825 396.852 73.4706C395.731 73.0572 395.525 72.6116 396.456 72.6116C396.792 72.6116 397.244 72.8882 397.461 73.2263ZM401.675 74.4762C401.675 74.8181 401.547 75.0978 401.389 75.0978C401.232 75.0978 400.924 74.8181 400.703 74.4762C400.483 74.1344 400.612 73.8547 400.989 73.8547C401.366 73.8547 401.675 74.1344 401.675 74.4762ZM404.993 78.3716C404.353 78.9807 404.279 78.9092 404.63 78.0235C404.874 77.4106 405.235 77.0657 405.435 77.2571C405.634 77.4479 405.436 77.9495 404.993 78.3716ZM408.788 80.3015C408.782 80.7154 408.549 80.657 408.221 80.1591C407.833 79.5712 407.53 79.5245 407.221 80.0038C406.978 80.3823 406.431 80.6831 406.007 80.6732C405.583 80.6626 405.752 80.3655 406.383 80.0131C407.03 79.652 407.328 79.0503 407.068 78.6339C406.799 78.2031 407.064 78.251 407.702 78.7476C408.305 79.2169 408.793 79.9161 408.788 80.3015ZM411.177 82.9655C410.943 83.1905 411.099 83.8195 411.524 84.364C412.154 85.1708 412.138 85.2192 411.439 84.625C410.968 84.2248 410.117 84.0681 409.549 84.277C408.635 84.6139 408.625 84.5399 409.466 83.6305C409.989 83.0662 410.684 82.5932 411.01 82.5801C411.336 82.5671 411.411 82.7405 411.177 82.9655ZM414.301 94.3661C414.081 94.7079 413.554 94.9833 413.13 94.9783C412.666 94.9721 412.747 94.7278 413.33 94.3661C414.574 93.5941 414.798 93.5941 414.301 94.3661ZM302.298 109.785C302.099 109.977 301.576 109.786 301.137 109.361C300.502 108.746 300.577 108.676 301.499 109.012C302.138 109.246 302.497 109.594 302.298 109.785ZM264.073 129.788C264.299 130.14 264.04 130.244 263.464 130.032C262.342 129.619 262.137 129.173 263.068 129.173C263.403 129.173 263.855 129.45 264.073 129.788ZM257.063 131.943C257.063 132.441 256.815 132.701 256.512 132.522C256.21 132.342 256.13 131.935 256.335 131.617C256.858 130.804 257.063 130.895 257.063 131.943ZM241.091 141.849C241.091 141.983 240.639 142.26 240.086 142.463C239.509 142.675 239.25 142.571 239.476 142.219C239.856 141.628 241.091 141.345 241.091 141.849ZM237.853 142.848C237.319 143.179 236.59 143.45 236.234 143.45C235.878 143.45 236.024 143.179 236.558 142.848C237.092 142.516 237.821 142.245 238.177 142.245C238.533 142.245 238.387 142.516 237.853 142.848ZM220.802 151.833C220.802 152.331 220.554 152.591 220.252 152.411C219.949 152.232 219.869 151.825 220.074 151.506C220.597 150.693 220.802 150.785 220.802 151.833ZM207.931 162.985C207.471 163.464 206.994 163.762 206.869 163.649C206.485 163.298 207.459 162.116 208.131 162.116C208.48 162.116 208.39 162.507 207.931 162.985ZM307.461 170.818C307.241 171.16 306.714 171.435 306.29 171.43C305.826 171.424 305.906 171.179 306.49 170.818C307.734 170.046 307.958 170.046 307.461 170.818ZM313.612 171.056C313.612 171.187 313.029 171.44 312.317 171.619C311.604 171.798 311.184 171.691 311.384 171.381C311.732 170.84 313.612 170.565 313.612 171.056ZM304.815 174.538C304.396 174.94 304.177 174.73 304.177 173.925C304.177 173.121 304.396 172.91 304.815 173.313C305.235 173.715 305.235 174.136 304.815 174.538ZM338.866 173.304C338.866 173.646 338.737 173.925 338.58 173.925C338.423 173.925 338.115 173.646 337.894 173.304C337.674 172.962 337.803 172.682 338.18 172.682C338.557 172.682 338.866 172.962 338.866 173.304ZM350.521 179.897C350.521 180.411 349.263 180.702 348.975 180.255C348.788 179.965 349.059 179.726 349.578 179.726C350.097 179.726 350.521 179.804 350.521 179.897ZM291.185 182.313C290.98 182.824 290.522 183.069 290.165 182.857C289.766 182.62 289.854 182.266 290.394 181.937C291.574 181.221 291.614 181.239 291.185 182.313ZM280.93 187.48C280.731 187.671 280.208 187.48 279.769 187.055C279.134 186.441 279.209 186.37 280.131 186.707C280.77 186.941 281.129 187.288 280.93 187.48ZM271.524 190.707C270.99 191.039 270.261 191.31 269.905 191.31C269.549 191.31 269.695 191.039 270.229 190.707C270.763 190.376 271.491 190.105 271.848 190.105C272.204 190.105 272.058 190.376 271.524 190.707ZM275.672 190.801C275.513 191.048 274.827 191.21 274.146 191.161C272.535 191.044 272.98 190.353 274.666 190.353C275.379 190.353 275.831 190.555 275.672 190.801ZM268.365 192.992C267.602 194.252 267.418 193.848 268.043 192.286C268.264 191.73 268.583 191.406 268.749 191.566C268.916 191.726 268.743 192.368 268.365 192.992ZM266.56 196.363C266.857 196.576 266.698 196.898 266.206 197.079C265.645 197.286 265.277 196.946 265.216 196.163C265.162 195.478 265.321 195.156 265.569 195.447C265.817 195.738 266.263 196.15 266.56 196.363ZM258.466 201.351C257.298 202.061 255.983 202.031 255.983 201.293C255.983 200.963 256.468 200.87 257.061 201.088C257.78 201.354 257.984 201.246 257.675 200.765C257.367 200.287 257.567 200.176 258.27 200.435C259.118 200.747 259.157 200.93 258.466 201.351ZM254.969 202.451C255.166 202.756 254.629 202.966 253.775 202.917C252.921 202.868 252.357 202.618 252.522 202.362C252.937 201.718 254.535 201.776 254.969 202.451ZM255.008 296.987C255.234 297.339 254.975 297.443 254.398 297.231C253.277 296.818 253.072 296.372 254.003 296.372C254.338 296.372 254.79 296.649 255.008 296.987ZM211.594 298.911C211.386 299.235 210.94 299.336 210.602 299.136C210.265 298.936 210.159 298.508 210.368 298.184C210.576 297.86 211.022 297.759 211.36 297.959C211.697 298.159 211.803 298.587 211.594 298.911ZM215.106 298.645C214.715 299.097 214.132 299.31 213.811 299.12C212.997 298.637 213.635 297.822 214.827 297.822C215.574 297.822 215.642 298.024 215.106 298.645ZM209.906 303.575C208.978 304.466 208.901 304.423 209.042 303.105C209.263 301.037 209.281 301.018 210.144 301.846C210.754 302.432 210.703 302.811 209.906 303.575ZM355.054 313.532C355.054 314.046 353.796 314.337 353.508 313.89C353.321 313.599 353.592 313.361 354.111 313.361C354.629 313.361 355.054 313.438 355.054 313.532ZM299.663 320.57C299.868 320.888 299.788 321.295 299.486 321.475C299.183 321.655 298.935 321.394 298.935 320.896C298.935 319.848 299.14 319.757 299.663 320.57ZM339.837 324.964C339.617 325.306 339.09 325.581 338.666 325.576C338.202 325.57 338.282 325.326 338.866 324.964C340.109 324.192 340.334 324.192 339.837 324.964ZM204.429 328.415C204.65 328.968 204.541 329.217 204.175 329C203.823 328.791 203.535 328.357 203.535 328.035C203.535 327.141 203.999 327.338 204.429 328.415ZM209.878 336.746C209.443 337.414 208.962 337.839 208.809 337.693C208.531 337.426 209.942 335.53 210.418 335.53C210.556 335.53 210.313 336.077 209.878 336.746ZM248.038 362.011C247.823 362.218 247.264 362.24 246.797 362.06C246.28 361.862 246.434 361.715 247.188 361.685C247.871 361.658 248.253 361.805 248.038 362.011ZM265.696 371.255C265.696 371.394 265.359 371.707 264.948 371.951C264.485 372.226 264.377 372.121 264.663 371.677C265.082 371.025 264.276 370.671 262.896 370.901C262.602 370.95 262.547 370.702 262.773 370.351C263.152 369.763 265.696 370.55 265.696 371.255ZM287.959 381.247C288.18 381.8 288.071 382.05 287.705 381.832C287.352 381.623 287.064 381.189 287.064 380.867C287.064 379.974 287.529 380.171 287.959 381.247ZM412.035 414.683C412.035 414.801 411.481 415.378 410.804 415.966C409.879 416.77 409.452 416.847 409.086 416.278C408.793 415.823 408.867 415.68 409.271 415.919C409.642 416.139 410.306 415.903 410.746 415.394C411.51 414.51 412.035 414.221 412.035 414.683ZM404.912 422.162C404.912 422.29 404.402 422.78 403.779 423.25C402.752 424.022 402.73 424 403.534 423.015C404.381 421.979 404.912 421.65 404.912 422.162ZM357.32 423.17C357.54 423.512 357.848 423.792 358.006 423.792C358.163 423.792 358.291 423.512 358.291 423.17C358.291 422.828 357.982 422.548 357.605 422.548C357.229 422.548 357.1 422.828 357.32 423.17ZM395.519 424.406C395.745 424.758 395.486 424.862 394.91 424.651C393.788 424.237 393.583 423.792 394.514 423.792C394.849 423.792 395.301 424.068 395.519 424.406Z" fill="#FD7013"/>
</svg>
